M48
;DRILL file {KiCad no-vcs-found-bc0306b~61~ubuntu16.04.1} date Thu Nov 23 17:06:49 2017
;FORMAT={-:-/ absolute / metric / decimal}
FMAT,2
METRIC,TZ
T1C0.800
T2C1.000
T3C1.016
T4C1.200
T5C1.300
T6C3.200
%
G90
G05
M71
T1
X92.852Y42.937
X101.282Y42.896
X102.Y52.5
X102.Y55.
X102.Y67.5
X106.564Y43.14
X106.68Y57.15
X109.22Y59.69
X111.76Y62.23
X114.332Y43.018
X124.622Y42.896
X131.495Y43.384
X131.5Y52.5
X132.08Y57.15
X133.35Y59.69
X133.35Y70.08
X142.28Y43.222
X149.86Y43.18
X157.Y69.
X160.02Y43.18
X165.1Y62.23
X167.64Y43.18
X176.258Y43.14
X186.182Y43.059
T2
X120.5Y80.42
X120.5Y82.96
X120.5Y85.5
T3
X91.44Y35.56
X91.44Y38.1
X93.98Y35.56
X93.98Y38.1
X96.52Y35.56
X96.52Y38.1
X139.7Y72.39
X142.24Y72.39
X144.78Y72.39
X147.32Y72.39
X149.86Y72.39
X152.4Y72.39
X154.94Y72.39
X157.48Y72.39
X160.02Y72.39
X162.56Y72.39
X165.1Y72.39
X167.64Y72.39
X170.18Y72.39
X172.72Y72.39
X175.26Y72.39
X162.56Y35.56
X162.56Y38.1
X165.1Y35.56
X165.1Y38.1
X167.64Y35.56
X167.64Y38.1
X109.22Y35.56
X109.22Y38.1
X111.76Y35.56
X111.76Y38.1
X114.3Y35.56
X114.3Y38.1
X144.78Y35.56
X144.78Y38.1
X147.32Y35.56
X147.32Y38.1
X149.86Y35.56
X149.86Y38.1
X180.34Y35.56
X180.34Y38.1
X182.88Y35.56
X182.88Y38.1
X185.42Y35.56
X185.42Y38.1
X91.44Y57.15
X91.44Y59.69
X91.44Y62.23
X91.44Y64.77
X91.44Y67.31
X93.98Y57.15
X93.98Y59.69
X93.98Y62.23
X93.98Y64.77
X93.98Y67.31
X127.Y35.56
X127.Y38.1
X129.54Y35.56
X129.54Y38.1
X132.08Y35.56
X132.08Y38.1
X139.7Y57.15
X142.24Y57.15
X144.78Y57.15
X147.32Y57.15
X149.86Y57.15
X152.4Y57.15
X154.94Y57.15
X157.48Y57.15
X160.02Y57.15
X162.56Y57.15
X165.1Y57.15
X167.64Y57.15
X170.18Y57.15
X172.72Y57.15
X175.26Y57.15
T4
X106.Y79.5
X106.Y87.
T5
X92.5Y79.
X92.5Y84.
T6
X93.98Y91.44
X120.65Y45.72
X156.21Y45.72
X182.88Y91.44
X93.98Y27.94
X182.88Y27.94
T0
M30
