%TF.GenerationSoftware,KiCad,Pcbnew,no-vcs-found-4c623da~61~ubuntu16.04.1*%
%TF.CreationDate,2017-11-21T10:53:03+02:00*%
%TF.ProjectId,reed-sensor,726565642D73656E736F722E6B696361,rev?*%
%TF.SameCoordinates,Original*%
%TF.FileFunction,Copper,L1,Top,Signal*%
%TF.FilePolarity,Positive*%
%FSLAX46Y46*%
G04 Gerber Fmt 4.6, Leading zero omitted, Abs format (unit mm)*
G04 Created by KiCad (PCBNEW no-vcs-found-4c623da~61~ubuntu16.04.1) date Tue Nov 21 10:53:03 2017*
%MOMM*%
%LPD*%
G01*
G04 APERTURE LIST*
%TA.AperFunction,ComponentPad*%
%ADD10R,1.727200X1.727200*%
%TD*%
%TA.AperFunction,ComponentPad*%
%ADD11O,1.727200X1.727200*%
%TD*%
%TA.AperFunction,SMDPad,CuDef*%
%ADD12R,1.900000X0.800000*%
%TD*%
%TA.AperFunction,ViaPad*%
%ADD13C,1.600000*%
%TD*%
%TA.AperFunction,Conductor*%
%ADD14C,0.800000*%
%TD*%
%TA.AperFunction,Conductor*%
%ADD15C,0.254000*%
%TD*%
G04 APERTURE END LIST*
D10*
%TO.P,J1,1*%
%TO.N,GND*%
X155000000Y-82500000D03*
D11*
%TO.P,J1,2*%
X157540000Y-82500000D03*
%TO.P,J1,3*%
%TO.N,Net-(J1-Pad3)*%
X155000000Y-79960000D03*
%TO.P,J1,4*%
%TO.N,GND*%
X157540000Y-79960000D03*
%TO.P,J1,5*%
%TO.N,Net-(J1-Pad5)*%
X155000000Y-77420000D03*
%TO.P,J1,6*%
%TO.N,GND*%
X157540000Y-77420000D03*
%TD*%
D12*
%TO.P,SW2,2*%
%TO.N,GND*%
X89250000Y-80000000D03*
%TO.P,SW2,1*%
%TO.N,Net-(J1-Pad5)*%
X70750000Y-80000000D03*
%TD*%
%TO.P,SW1,1*%
%TO.N,Net-(J1-Pad3)*%
X120750000Y-80000000D03*
%TO.P,SW1,2*%
%TO.N,GND*%
X139250000Y-80000000D03*
%TD*%
D13*
%TO.N,Net-(J1-Pad3)*%
X150000000Y-78000000D03*
X121000000Y-78000000D03*
%TO.N,GND*%
X150000000Y-83000000D03*
%TO.N,Net-(J1-Pad5)*%
X150000000Y-75000000D03*
X71000000Y-79000000D03*
%TD*%
D14*
%TO.N,Net-(J1-Pad3)*%
X155000000Y-79960000D02*
X151960000Y-79960000D01*
X151960000Y-79960000D02*
X150000000Y-78000000D01*
X120750000Y-78250000D02*
X121000000Y-78000000D01*
X120750000Y-80000000D02*
X120750000Y-78250000D01*
%TO.N,Net-(J1-Pad5)*%
X155000000Y-77420000D02*
X152420000Y-77420000D01*
X152420000Y-77420000D02*
X150000000Y-75000000D01*
X70750000Y-80000000D02*
X70750000Y-79250000D01*
X70750000Y-79250000D02*
X71000000Y-79000000D01*
%TD*%
D15*
%TO.N,GND*%
G36*
X168290000Y-87290000D02*
X66000000Y-87290000D01*
X65728295Y-87344046D01*
X65497954Y-87497954D01*
X65344046Y-87728295D01*
X65315262Y-87873000D01*
X58710000Y-87873000D01*
X58710000Y-82785750D01*
X153501400Y-82785750D01*
X153501400Y-83489910D01*
X153598073Y-83723299D01*
X153776702Y-83901927D01*
X154010091Y-83998600D01*
X154714250Y-83998600D01*
X154873000Y-83839850D01*
X154873000Y-82627000D01*
X155127000Y-82627000D01*
X155127000Y-83839850D01*
X155285750Y-83998600D01*
X155989909Y-83998600D01*
X156223298Y-83901927D01*
X156401927Y-83723299D01*
X156484529Y-83523881D01*
X156651510Y-83706821D01*
X157180973Y-83954968D01*
X157413000Y-83834469D01*
X157413000Y-82627000D01*
X157667000Y-82627000D01*
X157667000Y-83834469D01*
X157899027Y-83954968D01*
X158428490Y-83706821D01*
X158822688Y-83274947D01*
X158994958Y-82859026D01*
X158873817Y-82627000D01*
X157667000Y-82627000D01*
X157413000Y-82627000D01*
X155127000Y-82627000D01*
X154873000Y-82627000D01*
X153660150Y-82627000D01*
X153501400Y-82785750D01*
X58710000Y-82785750D01*
X58710000Y-80442619D01*
X62264613Y-80442619D01*
X62604155Y-81264372D01*
X63232321Y-81893636D01*
X64053481Y-82234611D01*
X64942619Y-82235387D01*
X65764372Y-81895845D01*
X66393636Y-81267679D01*
X66734611Y-80446519D01*
X66735349Y-79600000D01*
X69152560Y-79600000D01*
X69152560Y-80400000D01*
X69201843Y-80647765D01*
X69342191Y-80857809D01*
X69552235Y-80998157D01*
X69800000Y-81047440D01*
X71700000Y-81047440D01*
X71947765Y-80998157D01*
X72157809Y-80857809D01*
X72298157Y-80647765D01*
X72347440Y-80400000D01*
X72347440Y-80285750D01*
X87665000Y-80285750D01*
X87665000Y-80526309D01*
X87761673Y-80759698D01*
X87940301Y-80938327D01*
X88173690Y-81035000D01*
X88964250Y-81035000D01*
X89123000Y-80876250D01*
X89123000Y-80127000D01*
X89377000Y-80127000D01*
X89377000Y-80876250D01*
X89535750Y-81035000D01*
X90326310Y-81035000D01*
X90559699Y-80938327D01*
X90738327Y-80759698D01*
X90835000Y-80526309D01*
X90835000Y-80442619D01*
X103764613Y-80442619D01*
X104104155Y-81264372D01*
X104732321Y-81893636D01*
X105553481Y-82234611D01*
X106442619Y-82235387D01*
X107264372Y-81895845D01*
X107893636Y-81267679D01*
X108234611Y-80446519D01*
X108235349Y-79600000D01*
X119152560Y-79600000D01*
X119152560Y-80400000D01*
X119201843Y-80647765D01*
X119342191Y-80857809D01*
X119552235Y-80998157D01*
X119800000Y-81047440D01*
X121700000Y-81047440D01*
X121947765Y-80998157D01*
X122157809Y-80857809D01*
X122298157Y-80647765D01*
X122347440Y-80400000D01*
X122347440Y-80285750D01*
X137665000Y-80285750D01*
X137665000Y-80526309D01*
X137761673Y-80759698D01*
X137940301Y-80938327D01*
X138173690Y-81035000D01*
X138964250Y-81035000D01*
X139123000Y-80876250D01*
X139123000Y-80127000D01*
X139377000Y-80127000D01*
X139377000Y-80876250D01*
X139535750Y-81035000D01*
X140326310Y-81035000D01*
X140559699Y-80938327D01*
X140738327Y-80759698D01*
X140835000Y-80526309D01*
X140835000Y-80442619D01*
X142764613Y-80442619D01*
X143104155Y-81264372D01*
X143732321Y-81893636D01*
X144553481Y-82234611D01*
X145442619Y-82235387D01*
X146264372Y-81895845D01*
X146893636Y-81267679D01*
X147234611Y-80446519D01*
X147235387Y-79557381D01*
X146895845Y-78735628D01*
X146267679Y-78106364D01*
X145446519Y-77765389D01*
X144557381Y-77764613D01*
X143735628Y-78104155D01*
X143106364Y-78732321D01*
X142765389Y-79553481D01*
X142764613Y-80442619D01*
X140835000Y-80442619D01*
X140835000Y-80285750D01*
X140676250Y-80127000D01*
X139377000Y-80127000D01*
X139123000Y-80127000D01*
X137823750Y-80127000D01*
X137665000Y-80285750D01*
X122347440Y-80285750D01*
X122347440Y-79600000D01*
X122322316Y-79473691D01*
X137665000Y-79473691D01*
X137665000Y-79714250D01*
X137823750Y-79873000D01*
X139123000Y-79873000D01*
X139123000Y-79123750D01*
X139377000Y-79123750D01*
X139377000Y-79873000D01*
X140676250Y-79873000D01*
X140835000Y-79714250D01*
X140835000Y-79473691D01*
X140738327Y-79240302D01*
X140559699Y-79061673D01*
X140326310Y-78965000D01*
X139535750Y-78965000D01*
X139377000Y-79123750D01*
X139123000Y-79123750D01*
X138964250Y-78965000D01*
X138173690Y-78965000D01*
X137940301Y-79061673D01*
X137761673Y-79240302D01*
X137665000Y-79473691D01*
X122322316Y-79473691D01*
X122298157Y-79352235D01*
X122157809Y-79142191D01*
X121995575Y-79033789D01*
X122215824Y-78813923D01*
X122434750Y-78286691D01*
X122435248Y-77715813D01*
X122217243Y-77188200D01*
X121813923Y-76784176D01*
X121286691Y-76565250D01*
X120715813Y-76564752D01*
X120188200Y-76782757D01*
X119784176Y-77186077D01*
X119565250Y-77713309D01*
X119564752Y-78284187D01*
X119715000Y-78647815D01*
X119715000Y-78969467D01*
X119552235Y-79001843D01*
X119342191Y-79142191D01*
X119201843Y-79352235D01*
X119152560Y-79600000D01*
X108235349Y-79600000D01*
X108235387Y-79557381D01*
X107895845Y-78735628D01*
X107267679Y-78106364D01*
X106446519Y-77765389D01*
X105557381Y-77764613D01*
X104735628Y-78104155D01*
X104106364Y-78732321D01*
X103765389Y-79553481D01*
X103764613Y-80442619D01*
X90835000Y-80442619D01*
X90835000Y-80285750D01*
X90676250Y-80127000D01*
X89377000Y-80127000D01*
X89123000Y-80127000D01*
X87823750Y-80127000D01*
X87665000Y-80285750D01*
X72347440Y-80285750D01*
X72347440Y-79600000D01*
X72333582Y-79530330D01*
X72357100Y-79473691D01*
X87665000Y-79473691D01*
X87665000Y-79714250D01*
X87823750Y-79873000D01*
X89123000Y-79873000D01*
X89123000Y-79123750D01*
X89377000Y-79123750D01*
X89377000Y-79873000D01*
X90676250Y-79873000D01*
X90835000Y-79714250D01*
X90835000Y-79473691D01*
X90738327Y-79240302D01*
X90559699Y-79061673D01*
X90326310Y-78965000D01*
X89535750Y-78965000D01*
X89377000Y-79123750D01*
X89123000Y-79123750D01*
X88964250Y-78965000D01*
X88173690Y-78965000D01*
X87940301Y-79061673D01*
X87761673Y-79240302D01*
X87665000Y-79473691D01*
X72357100Y-79473691D01*
X72434750Y-79286691D01*
X72435248Y-78715813D01*
X72217243Y-78188200D01*
X71813923Y-77784176D01*
X71286691Y-77565250D01*
X70715813Y-77564752D01*
X70188200Y-77782757D01*
X69784176Y-78186077D01*
X69565250Y-78713309D01*
X69565001Y-78999304D01*
X69552235Y-79001843D01*
X69342191Y-79142191D01*
X69201843Y-79352235D01*
X69152560Y-79600000D01*
X66735349Y-79600000D01*
X66735387Y-79557381D01*
X66395845Y-78735628D01*
X65767679Y-78106364D01*
X64946519Y-77765389D01*
X64057381Y-77764613D01*
X63235628Y-78104155D01*
X62606364Y-78732321D01*
X62265389Y-79553481D01*
X62264613Y-80442619D01*
X58710000Y-80442619D01*
X58710000Y-75284187D01*
X148564752Y-75284187D01*
X148782757Y-75811800D01*
X149186077Y-76215824D01*
X149713309Y-76434750D01*
X149971263Y-76434975D01*
X150101377Y-76565088D01*
X149715813Y-76564752D01*
X149188200Y-76782757D01*
X148784176Y-77186077D01*
X148565250Y-77713309D01*
X148564752Y-78284187D01*
X148782757Y-78811800D01*
X149186077Y-79215824D01*
X149713309Y-79434750D01*
X149971263Y-79434975D01*
X151228142Y-80691853D01*
X151228144Y-80691856D01*
X151476512Y-80857809D01*
X151563923Y-80916215D01*
X151960000Y-80995001D01*
X151960005Y-80995000D01*
X153894487Y-80995000D01*
X153910971Y-81019670D01*
X153932023Y-81033737D01*
X153776702Y-81098073D01*
X153598073Y-81276701D01*
X153501400Y-81510090D01*
X153501400Y-82214250D01*
X153660150Y-82373000D01*
X154873000Y-82373000D01*
X154873000Y-82353000D01*
X155127000Y-82353000D01*
X155127000Y-82373000D01*
X157413000Y-82373000D01*
X157413000Y-80087000D01*
X157667000Y-80087000D01*
X157667000Y-82373000D01*
X158873817Y-82373000D01*
X158994958Y-82140974D01*
X158822688Y-81725053D01*
X158428490Y-81293179D01*
X158293687Y-81230000D01*
X158428490Y-81166821D01*
X158822688Y-80734947D01*
X158994958Y-80319026D01*
X158873817Y-80087000D01*
X157667000Y-80087000D01*
X157413000Y-80087000D01*
X157393000Y-80087000D01*
X157393000Y-79833000D01*
X157413000Y-79833000D01*
X157413000Y-77547000D01*
X157667000Y-77547000D01*
X157667000Y-79833000D01*
X158873817Y-79833000D01*
X158994958Y-79600974D01*
X158822688Y-79185053D01*
X158428490Y-78753179D01*
X158293687Y-78690000D01*
X158428490Y-78626821D01*
X158822688Y-78194947D01*
X158994958Y-77779026D01*
X158873817Y-77547000D01*
X157667000Y-77547000D01*
X157413000Y-77547000D01*
X157393000Y-77547000D01*
X157393000Y-77293000D01*
X157413000Y-77293000D01*
X157413000Y-76085531D01*
X157667000Y-76085531D01*
X157667000Y-77293000D01*
X158873817Y-77293000D01*
X158994958Y-77060974D01*
X158822688Y-76645053D01*
X158428490Y-76213179D01*
X157899027Y-75965032D01*
X157667000Y-76085531D01*
X157413000Y-76085531D01*
X157180973Y-75965032D01*
X156651510Y-76213179D01*
X156269992Y-76631161D01*
X156089029Y-76360330D01*
X155602848Y-76035474D01*
X155029359Y-75921400D01*
X154970641Y-75921400D01*
X154397152Y-76035474D01*
X153910971Y-76360330D01*
X153894487Y-76385000D01*
X152848711Y-76385000D01*
X151435025Y-74971313D01*
X151435248Y-74715813D01*
X151217243Y-74188200D01*
X150813923Y-73784176D01*
X150286691Y-73565250D01*
X149715813Y-73564752D01*
X149188200Y-73782757D01*
X148784176Y-74186077D01*
X148565250Y-74713309D01*
X148564752Y-75284187D01*
X58710000Y-75284187D01*
X58710000Y-72710000D01*
X168290000Y-72710000D01*
X168290000Y-87290000D01*
X168290000Y-87290000D01*
G37*
X168290000Y-87290000D02*
X66000000Y-87290000D01*
X65728295Y-87344046D01*
X65497954Y-87497954D01*
X65344046Y-87728295D01*
X65315262Y-87873000D01*
X58710000Y-87873000D01*
X58710000Y-82785750D01*
X153501400Y-82785750D01*
X153501400Y-83489910D01*
X153598073Y-83723299D01*
X153776702Y-83901927D01*
X154010091Y-83998600D01*
X154714250Y-83998600D01*
X154873000Y-83839850D01*
X154873000Y-82627000D01*
X155127000Y-82627000D01*
X155127000Y-83839850D01*
X155285750Y-83998600D01*
X155989909Y-83998600D01*
X156223298Y-83901927D01*
X156401927Y-83723299D01*
X156484529Y-83523881D01*
X156651510Y-83706821D01*
X157180973Y-83954968D01*
X157413000Y-83834469D01*
X157413000Y-82627000D01*
X157667000Y-82627000D01*
X157667000Y-83834469D01*
X157899027Y-83954968D01*
X158428490Y-83706821D01*
X158822688Y-83274947D01*
X158994958Y-82859026D01*
X158873817Y-82627000D01*
X157667000Y-82627000D01*
X157413000Y-82627000D01*
X155127000Y-82627000D01*
X154873000Y-82627000D01*
X153660150Y-82627000D01*
X153501400Y-82785750D01*
X58710000Y-82785750D01*
X58710000Y-80442619D01*
X62264613Y-80442619D01*
X62604155Y-81264372D01*
X63232321Y-81893636D01*
X64053481Y-82234611D01*
X64942619Y-82235387D01*
X65764372Y-81895845D01*
X66393636Y-81267679D01*
X66734611Y-80446519D01*
X66735349Y-79600000D01*
X69152560Y-79600000D01*
X69152560Y-80400000D01*
X69201843Y-80647765D01*
X69342191Y-80857809D01*
X69552235Y-80998157D01*
X69800000Y-81047440D01*
X71700000Y-81047440D01*
X71947765Y-80998157D01*
X72157809Y-80857809D01*
X72298157Y-80647765D01*
X72347440Y-80400000D01*
X72347440Y-80285750D01*
X87665000Y-80285750D01*
X87665000Y-80526309D01*
X87761673Y-80759698D01*
X87940301Y-80938327D01*
X88173690Y-81035000D01*
X88964250Y-81035000D01*
X89123000Y-80876250D01*
X89123000Y-80127000D01*
X89377000Y-80127000D01*
X89377000Y-80876250D01*
X89535750Y-81035000D01*
X90326310Y-81035000D01*
X90559699Y-80938327D01*
X90738327Y-80759698D01*
X90835000Y-80526309D01*
X90835000Y-80442619D01*
X103764613Y-80442619D01*
X104104155Y-81264372D01*
X104732321Y-81893636D01*
X105553481Y-82234611D01*
X106442619Y-82235387D01*
X107264372Y-81895845D01*
X107893636Y-81267679D01*
X108234611Y-80446519D01*
X108235349Y-79600000D01*
X119152560Y-79600000D01*
X119152560Y-80400000D01*
X119201843Y-80647765D01*
X119342191Y-80857809D01*
X119552235Y-80998157D01*
X119800000Y-81047440D01*
X121700000Y-81047440D01*
X121947765Y-80998157D01*
X122157809Y-80857809D01*
X122298157Y-80647765D01*
X122347440Y-80400000D01*
X122347440Y-80285750D01*
X137665000Y-80285750D01*
X137665000Y-80526309D01*
X137761673Y-80759698D01*
X137940301Y-80938327D01*
X138173690Y-81035000D01*
X138964250Y-81035000D01*
X139123000Y-80876250D01*
X139123000Y-80127000D01*
X139377000Y-80127000D01*
X139377000Y-80876250D01*
X139535750Y-81035000D01*
X140326310Y-81035000D01*
X140559699Y-80938327D01*
X140738327Y-80759698D01*
X140835000Y-80526309D01*
X140835000Y-80442619D01*
X142764613Y-80442619D01*
X143104155Y-81264372D01*
X143732321Y-81893636D01*
X144553481Y-82234611D01*
X145442619Y-82235387D01*
X146264372Y-81895845D01*
X146893636Y-81267679D01*
X147234611Y-80446519D01*
X147235387Y-79557381D01*
X146895845Y-78735628D01*
X146267679Y-78106364D01*
X145446519Y-77765389D01*
X144557381Y-77764613D01*
X143735628Y-78104155D01*
X143106364Y-78732321D01*
X142765389Y-79553481D01*
X142764613Y-80442619D01*
X140835000Y-80442619D01*
X140835000Y-80285750D01*
X140676250Y-80127000D01*
X139377000Y-80127000D01*
X139123000Y-80127000D01*
X137823750Y-80127000D01*
X137665000Y-80285750D01*
X122347440Y-80285750D01*
X122347440Y-79600000D01*
X122322316Y-79473691D01*
X137665000Y-79473691D01*
X137665000Y-79714250D01*
X137823750Y-79873000D01*
X139123000Y-79873000D01*
X139123000Y-79123750D01*
X139377000Y-79123750D01*
X139377000Y-79873000D01*
X140676250Y-79873000D01*
X140835000Y-79714250D01*
X140835000Y-79473691D01*
X140738327Y-79240302D01*
X140559699Y-79061673D01*
X140326310Y-78965000D01*
X139535750Y-78965000D01*
X139377000Y-79123750D01*
X139123000Y-79123750D01*
X138964250Y-78965000D01*
X138173690Y-78965000D01*
X137940301Y-79061673D01*
X137761673Y-79240302D01*
X137665000Y-79473691D01*
X122322316Y-79473691D01*
X122298157Y-79352235D01*
X122157809Y-79142191D01*
X121995575Y-79033789D01*
X122215824Y-78813923D01*
X122434750Y-78286691D01*
X122435248Y-77715813D01*
X122217243Y-77188200D01*
X121813923Y-76784176D01*
X121286691Y-76565250D01*
X120715813Y-76564752D01*
X120188200Y-76782757D01*
X119784176Y-77186077D01*
X119565250Y-77713309D01*
X119564752Y-78284187D01*
X119715000Y-78647815D01*
X119715000Y-78969467D01*
X119552235Y-79001843D01*
X119342191Y-79142191D01*
X119201843Y-79352235D01*
X119152560Y-79600000D01*
X108235349Y-79600000D01*
X108235387Y-79557381D01*
X107895845Y-78735628D01*
X107267679Y-78106364D01*
X106446519Y-77765389D01*
X105557381Y-77764613D01*
X104735628Y-78104155D01*
X104106364Y-78732321D01*
X103765389Y-79553481D01*
X103764613Y-80442619D01*
X90835000Y-80442619D01*
X90835000Y-80285750D01*
X90676250Y-80127000D01*
X89377000Y-80127000D01*
X89123000Y-80127000D01*
X87823750Y-80127000D01*
X87665000Y-80285750D01*
X72347440Y-80285750D01*
X72347440Y-79600000D01*
X72333582Y-79530330D01*
X72357100Y-79473691D01*
X87665000Y-79473691D01*
X87665000Y-79714250D01*
X87823750Y-79873000D01*
X89123000Y-79873000D01*
X89123000Y-79123750D01*
X89377000Y-79123750D01*
X89377000Y-79873000D01*
X90676250Y-79873000D01*
X90835000Y-79714250D01*
X90835000Y-79473691D01*
X90738327Y-79240302D01*
X90559699Y-79061673D01*
X90326310Y-78965000D01*
X89535750Y-78965000D01*
X89377000Y-79123750D01*
X89123000Y-79123750D01*
X88964250Y-78965000D01*
X88173690Y-78965000D01*
X87940301Y-79061673D01*
X87761673Y-79240302D01*
X87665000Y-79473691D01*
X72357100Y-79473691D01*
X72434750Y-79286691D01*
X72435248Y-78715813D01*
X72217243Y-78188200D01*
X71813923Y-77784176D01*
X71286691Y-77565250D01*
X70715813Y-77564752D01*
X70188200Y-77782757D01*
X69784176Y-78186077D01*
X69565250Y-78713309D01*
X69565001Y-78999304D01*
X69552235Y-79001843D01*
X69342191Y-79142191D01*
X69201843Y-79352235D01*
X69152560Y-79600000D01*
X66735349Y-79600000D01*
X66735387Y-79557381D01*
X66395845Y-78735628D01*
X65767679Y-78106364D01*
X64946519Y-77765389D01*
X64057381Y-77764613D01*
X63235628Y-78104155D01*
X62606364Y-78732321D01*
X62265389Y-79553481D01*
X62264613Y-80442619D01*
X58710000Y-80442619D01*
X58710000Y-75284187D01*
X148564752Y-75284187D01*
X148782757Y-75811800D01*
X149186077Y-76215824D01*
X149713309Y-76434750D01*
X149971263Y-76434975D01*
X150101377Y-76565088D01*
X149715813Y-76564752D01*
X149188200Y-76782757D01*
X148784176Y-77186077D01*
X148565250Y-77713309D01*
X148564752Y-78284187D01*
X148782757Y-78811800D01*
X149186077Y-79215824D01*
X149713309Y-79434750D01*
X149971263Y-79434975D01*
X151228142Y-80691853D01*
X151228144Y-80691856D01*
X151476512Y-80857809D01*
X151563923Y-80916215D01*
X151960000Y-80995001D01*
X151960005Y-80995000D01*
X153894487Y-80995000D01*
X153910971Y-81019670D01*
X153932023Y-81033737D01*
X153776702Y-81098073D01*
X153598073Y-81276701D01*
X153501400Y-81510090D01*
X153501400Y-82214250D01*
X153660150Y-82373000D01*
X154873000Y-82373000D01*
X154873000Y-82353000D01*
X155127000Y-82353000D01*
X155127000Y-82373000D01*
X157413000Y-82373000D01*
X157413000Y-80087000D01*
X157667000Y-80087000D01*
X157667000Y-82373000D01*
X158873817Y-82373000D01*
X158994958Y-82140974D01*
X158822688Y-81725053D01*
X158428490Y-81293179D01*
X158293687Y-81230000D01*
X158428490Y-81166821D01*
X158822688Y-80734947D01*
X158994958Y-80319026D01*
X158873817Y-80087000D01*
X157667000Y-80087000D01*
X157413000Y-80087000D01*
X157393000Y-80087000D01*
X157393000Y-79833000D01*
X157413000Y-79833000D01*
X157413000Y-77547000D01*
X157667000Y-77547000D01*
X157667000Y-79833000D01*
X158873817Y-79833000D01*
X158994958Y-79600974D01*
X158822688Y-79185053D01*
X158428490Y-78753179D01*
X158293687Y-78690000D01*
X158428490Y-78626821D01*
X158822688Y-78194947D01*
X158994958Y-77779026D01*
X158873817Y-77547000D01*
X157667000Y-77547000D01*
X157413000Y-77547000D01*
X157393000Y-77547000D01*
X157393000Y-77293000D01*
X157413000Y-77293000D01*
X157413000Y-76085531D01*
X157667000Y-76085531D01*
X157667000Y-77293000D01*
X158873817Y-77293000D01*
X158994958Y-77060974D01*
X158822688Y-76645053D01*
X158428490Y-76213179D01*
X157899027Y-75965032D01*
X157667000Y-76085531D01*
X157413000Y-76085531D01*
X157180973Y-75965032D01*
X156651510Y-76213179D01*
X156269992Y-76631161D01*
X156089029Y-76360330D01*
X155602848Y-76035474D01*
X155029359Y-75921400D01*
X154970641Y-75921400D01*
X154397152Y-76035474D01*
X153910971Y-76360330D01*
X153894487Y-76385000D01*
X152848711Y-76385000D01*
X151435025Y-74971313D01*
X151435248Y-74715813D01*
X151217243Y-74188200D01*
X150813923Y-73784176D01*
X150286691Y-73565250D01*
X149715813Y-73564752D01*
X149188200Y-73782757D01*
X148784176Y-74186077D01*
X148565250Y-74713309D01*
X148564752Y-75284187D01*
X58710000Y-75284187D01*
X58710000Y-72710000D01*
X168290000Y-72710000D01*
X168290000Y-87290000D01*
%TD*%
M02*
